<svg xmlns="http://www.w3.org/2000/svg" width="31.86" height="36.707" viewBox="0 0 31.86 36.707"><g transform="translate(0)"><circle cx="8.26" cy="8.26" r="8.26" transform="translate(10.03 7.715)" fill="#f74943"/><path d="M49.8,2.405A32.27,32.27,0,0,1,37.767.088L37.548,0l-.219.088A32.273,32.273,0,0,1,25.293,2.405H23.978V14.8h-2.95a1.772,1.772,0,0,0-1.77,1.77V26.6a1.772,1.772,0,0,0,1.77,1.77h5.313a15.317,15.317,0,0,0,5.627,5.3l5.58,3.044,5.58-3.044A15.322,15.322,0,0,0,51.118,20.2V2.405ZM20.438,26.6V16.565a.591.591,0,0,1,.59-.59h5.31a.591.591,0,0,1,.59.59V26.6a.591.591,0,0,1-.59.59h-5.31A.591.591,0,0,1,20.438,26.6Zm7.67-8.855A3.75,3.75,0,0,0,31.648,14V10.96a1.475,1.475,0,1,1,2.95,0v3.713a1.894,1.894,0,0,0,1.892,1.892h4.325a2.046,2.046,0,0,1,2.043,2.043v6.534a2.045,2.045,0,0,1-2.043,2.043H32.122a1.4,1.4,0,0,1-1.163-.622,2.572,2.572,0,0,0-2.145-1.148h-.706V17.74ZM49.938,20.2a14.143,14.143,0,0,1-7.374,12.423l-5.016,2.736-5.016-2.736a14.15,14.15,0,0,1-5.063-4.683,1.757,1.757,0,0,0,.627-1.233,12.915,12.915,0,0,0,5,4.88l4.45,2.428L42,31.591A12.962,12.962,0,0,0,48.758,20.2v-8.95h-1.18v8.95a11.783,11.783,0,0,1-6.144,10.35l-3.886,2.119-3.886-2.119a11.743,11.743,0,0,1-4.109-3.739,1.385,1.385,0,0,1,.424.4,2.572,2.572,0,0,0,2.145,1.148h8.693a3.227,3.227,0,0,0,3.223-3.223V18.609a3.227,3.227,0,0,0-3.223-3.223H36.49a.712.712,0,0,1-.712-.712V10.96a2.655,2.655,0,0,0-5.31,0V14a2.56,2.56,0,0,1-2.362,2.545,1.758,1.758,0,0,0-.588-1.289V5.878a35.772,35.772,0,0,0,10.03-2.085,35.778,35.778,0,0,0,10.03,2.085v.658h1.18V4.755l-.563-.026A34.618,34.618,0,0,1,37.753,2.611l-.2-.076-.2.076A34.626,34.626,0,0,1,26.9,4.728l-.563.027V14.8h-1.18V3.585h.135A33.435,33.435,0,0,0,37.548,1.27,33.435,33.435,0,0,0,49.8,3.585h.135V20.2h0Z" transform="translate(-19.258)"/><rect width="1.18" height="1.18" transform="translate(28.32 8.895)" fill="#333"/><rect width="4.13" height="1.18" transform="translate(2.36 24.825)" fill="#333"/></g></svg>