<svg xmlns="http://www.w3.org/2000/svg" width="23.576" height="27.277" viewBox="0 0 23.576 27.277"><g transform="translate(0.2 0.2)"><path d="M32.575,17.267a4.281,4.281,0,0,0-3.481,1.875L22.34,15.018a5.229,5.229,0,0,0,.245-1.585,5.113,5.113,0,0,0-.25-1.591l6.749-4.119A4.273,4.273,0,0,0,32.57,9.61a4.621,4.621,0,0,0,4.4-4.805A4.617,4.617,0,0,0,32.57,0a4.617,4.617,0,0,0-4.4,4.805,5.087,5.087,0,0,0,.25,1.591l-6.743,4.119A4.258,4.258,0,0,0,18.2,8.628a4.621,4.621,0,0,0-4.4,4.805,4.621,4.621,0,0,0,4.4,4.805,4.28,4.28,0,0,0,3.492-1.892l6.749,4.124a5.186,5.186,0,0,0-.255,1.6,4.621,4.621,0,0,0,4.4,4.805,4.617,4.617,0,0,0,4.4-4.805A4.622,4.622,0,0,0,32.575,17.267Zm0-15.755a3.17,3.17,0,0,1,3.017,3.3,3.029,3.029,0,1,1-6.034,0A3.173,3.173,0,0,1,32.575,1.512ZM18.2,16.731a3.17,3.17,0,0,1-3.017-3.3,3.17,3.17,0,0,1,3.017-3.3,3.17,3.17,0,0,1,3.017,3.3A3.173,3.173,0,0,1,18.2,16.731Zm14.375,8.633a3.17,3.17,0,0,1-3.017-3.3,3.029,3.029,0,1,1,6.034,0A3.17,3.17,0,0,1,32.575,25.365Z" transform="translate(-13.8 0)" fill="#898686" stroke="#898686" stroke-width="0.4"/></g></svg>