<svg xmlns="http://www.w3.org/2000/svg" xmlns:xlink="http://www.w3.org/1999/xlink" width="30.719" height="28.426" viewBox="0 0 30.719 28.426"><defs><clipPath id="a"><rect width="30.719" height="28.426" fill="none"/></clipPath></defs><g clip-path="url(#a)"><g transform="translate(-94 -30)"><g transform="translate(94 30)"><g transform="translate(10.179 23.022)"><path d="M172.358,402.828a2.7,2.7,0,1,0,2.7,2.7A2.7,2.7,0,0,0,172.358,402.828Zm0,3.895a1.193,1.193,0,1,1,1.193-1.193A1.195,1.195,0,0,1,172.358,406.723Z" transform="translate(-169.656 -402.828)"/></g><g transform="translate(19.656 23.022)"><path d="M330.3,402.828a2.7,2.7,0,1,0,2.7,2.7A2.7,2.7,0,0,0,330.3,402.828Zm0,3.895a1.193,1.193,0,1,1,1.193-1.193A1.195,1.195,0,0,1,330.3,406.723Z" transform="translate(-327.601 -402.828)"/></g><g transform="translate(0 0)"><path d="M30.38,24.552A1.5,1.5,0,0,0,29.21,24H5.716l-.474-2.3a1.51,1.51,0,0,0-.877-1.079L1.054,19.177a.754.754,0,0,0-.6,1.384L3.764,22,7.414,39.713a1.514,1.514,0,0,0,1.477,1.2h18.07a.754.754,0,0,0,0-1.508H8.891l-.444-2.155H27.1a1.514,1.514,0,0,0,1.477-1.2l2.11-10.24A1.5,1.5,0,0,0,30.38,24.552ZM27.1,35.745H8.137L6.027,25.5H29.21Z" transform="translate(0 -19.114)"/></g></g></g></g></svg>